<svg xmlns="http://www.w3.org/2000/svg" width="360" height="360">
  <rect width="100%" height="100%" fill="#3148BE"/>
  <path fill="#fff" d="M237.93 93.55c17.91 0 32.36 6.01 43.36 18.04 11 11.71 16.33 27.54 16.33 47.49v97.18H250.5V163.2c0-16.14-7.86-25.96-22.62-25.96-15.4 0-24.5 11.08-24.5 29.76v89.27h-47.13V163.2c0-16.14-7.85-25.96-22.62-25.96-15.4 0-24.5 11.08-24.5 29.76v89.27H62V97.98h47.12v14.56c8.49-12.66 22.62-19 42.1-19 18.22 0 32.05 6.97 41.16 20.9 9.74-13.93 24.82-20.9 45.55-20.9Z"/>
</svg>